<svg id="Layer_3" data-name="Layer 3" xmlns="http://www.w3.org/2000/svg" viewBox="0 0 122.63 122.63"><circle cx="61.32" cy="61.32" r="59.32" style="fill:#289947;stroke:#4cb748;stroke-miterlimit:10;stroke-width:4px"/><path d="M55.06,5.59a4,4,0,0,1,3.47-4A20.42,20.42,0,0,1,62,1.42l2.38.08a3.86,3.86,0,0,1,3.71,3.85v14A4,4,0,0,0,70,22.81l20.16,12.7a4,4,0,0,0,4,.17l13.41-6.87a4,4,0,0,1,5.25,1.41l2.79,4.33a4,4,0,0,1-1.19,5.59l-12.78,8.34a4.08,4.08,0,0,0-1.83,3.43l.2,21.77A4,4,0,0,0,101.83,77l12.58,8.17a4,4,0,0,1,1.23,5.55l-2.41,3.82A4,4,0,0,1,108,96.05L95,89.56a4.09,4.09,0,0,0-3.87.13L70.53,101.82a4.06,4.06,0,0,0-2,3.44l-.16,13.88a4.05,4.05,0,0,1-4.05,4H59.41a4.05,4.05,0,0,1-4-4v-14a4.07,4.07,0,0,0-2-3.5L32.58,89.47a4,4,0,0,0-3.93-.09L16.19,96a4,4,0,0,1-5.31-1.42L8.26,90.36A4,4,0,0,1,9.8,84.62l13-6.85A4,4,0,0,0,25,74L24,52a4,4,0,0,0-1.86-3.23L9.2,40.52a4,4,0,0,1-1.3-5.46L11,29.81a4,4,0,0,1,5.68-1.35l11.81,7.6a4,4,0,0,0,4.35,0L53.08,23.29A4.07,4.07,0,0,0,55,19.89Z" transform="translate(-0.52 -0.96)" style="fill:#4cb748"/><path d="M59.91,33.1,37.28,45a3.87,3.87,0,0,0-2.08,3.44V73.22a3.89,3.89,0,0,0,1.85,3.32L59.49,90.33a3.88,3.88,0,0,0,3.82.15L86.12,78.77a3.91,3.91,0,0,0,2.12-3.47V50a3.88,3.88,0,0,0-1.9-3.34L63.72,33.2A3.89,3.89,0,0,0,59.91,33.1Z" transform="translate(-0.52 -0.96)" style="fill:#289947"/></svg>